<svg xmlns="http://www.w3.org/2000/svg" viewBox="0 0 120 120">
  <polygon points="109.2,59.7 107.9,67.9 105.1,76.8 94.0,81.2 94.6,89.5 93.0,98.4 83.9,105.2 76.0,105.8 68.9,105.1 59.3,98.6 50.6,106.0 42.2,106.9 34.4,103.5 29.6,97.9 24.7,91.0 24.3,78.9 17.7,76.9 10.4,67.6 10.4,61.4 10.2,52.8 17.6,44.5 25.1,38.7 23.0,31.7 27.3,22.7 34.0,17.4 43.3,12.7 50.9,15.0 58.6,19.1 68.2,15.4 77.3,12.7 86.5,15.4 90.3,21.3 95.4,28.8 93.6,39.6 103.8,43.0 108.4,52.6" fill="#17e07f" />
  <circle cx="38.7" cy="22.9" r="0.64" fill="#141414" opacity="0.78" />
  <circle cx="43.7" cy="22.9" r="0.71" fill="#141414" opacity="0.78" />
  <circle cx="48.7" cy="22.9" r="0.77" fill="#141414" opacity="0.78" />
  <circle cx="53.7" cy="22.9" r="0.84" fill="#141414" opacity="0.78" />
  <circle cx="63.7" cy="22.9" r="0.97" fill="#141414" opacity="0.78" />
  <circle cx="68.7" cy="22.9" r="1.04" fill="#141414" opacity="0.78" />
  <circle cx="73.7" cy="22.9" r="1.10" fill="#141414" opacity="0.78" />
  <circle cx="78.7" cy="22.9" r="1.17" fill="#141414" opacity="0.78" />
  <circle cx="83.7" cy="22.9" r="1.23" fill="#141414" opacity="0.78" />
  <circle cx="31.2" cy="27.4" r="0.61" fill="#141414" opacity="0.78" />
  <circle cx="36.2" cy="27.4" r="0.67" fill="#141414" opacity="0.78" />
  <circle cx="41.2" cy="27.4" r="0.74" fill="#141414" opacity="0.78" />
  <circle cx="46.2" cy="27.4" r="0.80" fill="#141414" opacity="0.78" />
  <circle cx="51.2" cy="27.4" r="0.87" fill="#141414" opacity="0.78" />
  <circle cx="56.2" cy="27.4" r="0.93" fill="#141414" opacity="0.78" />
  <circle cx="61.2" cy="27.4" r="1.00" fill="#141414" opacity="0.78" />
  <circle cx="66.2" cy="27.4" r="1.07" fill="#141414" opacity="0.78" />
  <circle cx="71.2" cy="27.4" r="1.13" fill="#141414" opacity="0.78" />
  <circle cx="76.2" cy="27.4" r="1.20" fill="#141414" opacity="0.78" />
  <circle cx="81.2" cy="27.4" r="1.26" fill="#141414" opacity="0.78" />
  <circle cx="86.2" cy="27.4" r="1.33" fill="#141414" opacity="0.78" />
  <circle cx="33.7" cy="31.9" r="0.70" fill="#141414" opacity="0.78" />
  <circle cx="38.7" cy="31.9" r="0.77" fill="#141414" opacity="0.78" />
  <circle cx="43.7" cy="31.9" r="0.83" fill="#141414" opacity="0.78" />
  <circle cx="48.7" cy="31.9" r="0.90" fill="#141414" opacity="0.78" />
  <circle cx="53.7" cy="31.9" r="0.96" fill="#141414" opacity="0.78" />
  <circle cx="58.7" cy="31.9" r="1.03" fill="#141414" opacity="0.78" />
  <circle cx="63.7" cy="31.9" r="1.09" fill="#141414" opacity="0.78" />
  <circle cx="68.7" cy="31.9" r="1.16" fill="#141414" opacity="0.78" />
  <circle cx="73.7" cy="31.9" r="1.22" fill="#141414" opacity="0.78" />
  <circle cx="78.7" cy="31.9" r="1.29" fill="#141414" opacity="0.78" />
  <circle cx="83.7" cy="31.9" r="1.36" fill="#141414" opacity="0.78" />
  <circle cx="88.7" cy="31.9" r="1.42" fill="#141414" opacity="0.78" />
  <circle cx="31.2" cy="36.4" r="0.73" fill="#141414" opacity="0.78" />
  <circle cx="36.2" cy="36.4" r="0.79" fill="#141414" opacity="0.78" />
  <circle cx="41.2" cy="36.4" r="0.86" fill="#141414" opacity="0.78" />
  <circle cx="46.2" cy="36.4" r="0.92" fill="#141414" opacity="0.78" />
  <circle cx="51.2" cy="36.4" r="0.99" fill="#141414" opacity="0.78" />
  <circle cx="56.2" cy="36.4" r="1.06" fill="#141414" opacity="0.78" />
  <circle cx="61.2" cy="36.4" r="1.12" fill="#141414" opacity="0.78" />
  <circle cx="66.2" cy="36.4" r="1.19" fill="#141414" opacity="0.78" />
  <circle cx="71.2" cy="36.4" r="1.25" fill="#141414" opacity="0.78" />
  <circle cx="76.2" cy="36.4" r="1.32" fill="#141414" opacity="0.78" />
  <circle cx="81.2" cy="36.4" r="1.38" fill="#141414" opacity="0.78" />
  <circle cx="86.2" cy="36.4" r="1.45" fill="#141414" opacity="0.78" />
  <circle cx="33.7" cy="40.9" r="0.82" fill="#141414" opacity="0.78" />
  <circle cx="38.7" cy="40.9" r="0.89" fill="#141414" opacity="0.78" />
  <circle cx="43.7" cy="40.9" r="0.95" fill="#141414" opacity="0.78" />
  <circle cx="48.7" cy="40.9" r="1.02" fill="#141414" opacity="0.78" />
  <circle cx="53.7" cy="40.9" r="1.08" fill="#141414" opacity="0.78" />
  <circle cx="58.7" cy="40.9" r="1.15" fill="#141414" opacity="0.78" />
  <circle cx="63.7" cy="40.9" r="1.21" fill="#141414" opacity="0.78" />
  <circle cx="68.7" cy="40.9" r="1.28" fill="#141414" opacity="0.78" />
  <circle cx="73.7" cy="40.9" r="1.35" fill="#141414" opacity="0.78" />
  <circle cx="78.7" cy="40.9" r="1.41" fill="#141414" opacity="0.78" />
  <circle cx="83.7" cy="40.9" r="1.48" fill="#141414" opacity="0.78" />
  <circle cx="88.7" cy="40.9" r="1.54" fill="#141414" opacity="0.78" />
  <circle cx="26.2" cy="45.4" r="0.78" fill="#141414" opacity="0.78" />
  <circle cx="31.2" cy="45.4" r="0.85" fill="#141414" opacity="0.78" />
  <circle cx="36.2" cy="45.4" r="0.91" fill="#141414" opacity="0.78" />
  <circle cx="41.2" cy="45.4" r="0.98" fill="#141414" opacity="0.78" />
  <circle cx="46.2" cy="45.4" r="1.05" fill="#141414" opacity="0.78" />
  <circle cx="51.2" cy="45.4" r="1.11" fill="#141414" opacity="0.78" />
  <circle cx="56.2" cy="45.4" r="1.18" fill="#141414" opacity="0.78" />
  <circle cx="61.2" cy="45.4" r="1.24" fill="#141414" opacity="0.78" />
  <circle cx="66.2" cy="45.4" r="1.31" fill="#141414" opacity="0.78" />
  <circle cx="71.2" cy="45.4" r="1.37" fill="#141414" opacity="0.78" />
  <circle cx="76.2" cy="45.4" r="1.44" fill="#141414" opacity="0.78" />
  <circle cx="81.2" cy="45.4" r="1.51" fill="#141414" opacity="0.78" />
  <circle cx="86.2" cy="45.4" r="1.57" fill="#141414" opacity="0.78" />
  <circle cx="91.2" cy="45.4" r="1.64" fill="#141414" opacity="0.78" />
  <circle cx="96.2" cy="45.4" r="1.70" fill="#141414" opacity="0.78" />
  <circle cx="23.7" cy="49.9" r="0.81" fill="#141414" opacity="0.78" />
  <circle cx="28.7" cy="49.9" r="0.88" fill="#141414" opacity="0.78" />
  <circle cx="33.7" cy="49.9" r="0.94" fill="#141414" opacity="0.78" />
  <circle cx="38.7" cy="49.9" r="1.01" fill="#141414" opacity="0.78" />
  <circle cx="43.7" cy="49.9" r="1.07" fill="#141414" opacity="0.78" />
  <circle cx="48.7" cy="49.9" r="1.14" fill="#141414" opacity="0.78" />
  <circle cx="53.7" cy="49.9" r="1.20" fill="#141414" opacity="0.78" />
  <circle cx="58.7" cy="49.9" r="1.27" fill="#141414" opacity="0.78" />
  <circle cx="63.7" cy="49.9" r="1.34" fill="#141414" opacity="0.78" />
  <circle cx="68.7" cy="49.9" r="1.40" fill="#141414" opacity="0.78" />
  <circle cx="73.7" cy="49.9" r="1.47" fill="#141414" opacity="0.78" />
  <circle cx="78.7" cy="49.9" r="1.53" fill="#141414" opacity="0.78" />
  <circle cx="83.7" cy="49.9" r="1.60" fill="#141414" opacity="0.78" />
  <circle cx="88.7" cy="49.9" r="1.66" fill="#141414" opacity="0.78" />
  <circle cx="93.7" cy="49.9" r="1.73" fill="#141414" opacity="0.78" />
  <circle cx="98.7" cy="49.9" r="1.80" fill="#141414" opacity="0.78" />
  <circle cx="21.2" cy="54.4" r="0.84" fill="#141414" opacity="0.78" />
  <circle cx="26.2" cy="54.4" r="0.90" fill="#141414" opacity="0.78" />
  <circle cx="31.2" cy="54.4" r="0.97" fill="#141414" opacity="0.78" />
  <circle cx="36.2" cy="54.4" r="1.04" fill="#141414" opacity="0.78" />
  <circle cx="41.2" cy="54.4" r="1.10" fill="#141414" opacity="0.78" />
  <circle cx="46.2" cy="54.4" r="1.17" fill="#141414" opacity="0.78" />
  <circle cx="51.2" cy="54.4" r="1.23" fill="#141414" opacity="0.78" />
  <circle cx="56.2" cy="54.4" r="1.30" fill="#141414" opacity="0.78" />
  <circle cx="61.2" cy="54.4" r="1.36" fill="#141414" opacity="0.78" />
  <circle cx="66.2" cy="54.4" r="1.43" fill="#141414" opacity="0.78" />
  <circle cx="71.2" cy="54.4" r="1.50" fill="#141414" opacity="0.78" />
  <circle cx="76.2" cy="54.4" r="1.56" fill="#141414" opacity="0.78" />
  <circle cx="81.2" cy="54.4" r="1.63" fill="#141414" opacity="0.78" />
  <circle cx="86.2" cy="54.4" r="1.69" fill="#141414" opacity="0.78" />
  <circle cx="91.2" cy="54.4" r="1.76" fill="#141414" opacity="0.78" />
  <circle cx="96.2" cy="54.4" r="1.82" fill="#141414" opacity="0.78" />
  <circle cx="101.2" cy="54.4" r="1.89" fill="#141414" opacity="0.78" />
  <circle cx="18.7" cy="58.9" r="0.87" fill="#141414" opacity="0.78" />
  <circle cx="23.7" cy="58.9" r="0.93" fill="#141414" opacity="0.78" />
  <circle cx="28.7" cy="58.9" r="1.00" fill="#141414" opacity="0.78" />
  <circle cx="33.7" cy="58.9" r="1.06" fill="#141414" opacity="0.78" />
  <circle cx="38.7" cy="58.9" r="1.13" fill="#141414" opacity="0.78" />
  <circle cx="43.7" cy="58.9" r="1.20" fill="#141414" opacity="0.78" />
  <circle cx="48.7" cy="58.9" r="1.26" fill="#141414" opacity="0.78" />
  <circle cx="53.7" cy="58.9" r="1.33" fill="#141414" opacity="0.78" />
  <circle cx="58.7" cy="58.9" r="1.39" fill="#141414" opacity="0.78" />
  <circle cx="63.7" cy="58.9" r="1.46" fill="#141414" opacity="0.78" />
  <circle cx="68.7" cy="58.9" r="1.52" fill="#141414" opacity="0.78" />
  <circle cx="73.7" cy="58.9" r="1.59" fill="#141414" opacity="0.78" />
  <circle cx="78.7" cy="58.9" r="1.65" fill="#141414" opacity="0.78" />
  <circle cx="83.7" cy="58.9" r="1.72" fill="#141414" opacity="0.78" />
  <circle cx="88.7" cy="58.9" r="1.79" fill="#141414" opacity="0.78" />
  <circle cx="93.7" cy="58.9" r="1.85" fill="#141414" opacity="0.78" />
  <circle cx="98.7" cy="58.9" r="1.92" fill="#141414" opacity="0.78" />
  <circle cx="21.2" cy="63.4" r="0.96" fill="#141414" opacity="0.78" />
  <circle cx="26.2" cy="63.4" r="1.03" fill="#141414" opacity="0.78" />
  <circle cx="31.2" cy="63.4" r="1.09" fill="#141414" opacity="0.78" />
  <circle cx="36.2" cy="63.4" r="1.16" fill="#141414" opacity="0.78" />
  <circle cx="41.2" cy="63.4" r="1.22" fill="#141414" opacity="0.78" />
  <circle cx="46.2" cy="63.4" r="1.29" fill="#141414" opacity="0.78" />
  <circle cx="51.2" cy="63.4" r="1.35" fill="#141414" opacity="0.78" />
  <circle cx="56.2" cy="63.4" r="1.42" fill="#141414" opacity="0.78" />
  <circle cx="61.2" cy="63.4" r="1.49" fill="#141414" opacity="0.78" />
  <circle cx="66.2" cy="63.4" r="1.55" fill="#141414" opacity="0.78" />
  <circle cx="71.2" cy="63.4" r="1.62" fill="#141414" opacity="0.78" />
  <circle cx="76.2" cy="63.4" r="1.68" fill="#141414" opacity="0.78" />
  <circle cx="81.2" cy="63.4" r="1.75" fill="#141414" opacity="0.78" />
  <circle cx="86.2" cy="63.4" r="1.81" fill="#141414" opacity="0.78" />
  <circle cx="91.2" cy="63.4" r="1.88" fill="#141414" opacity="0.78" />
  <circle cx="96.2" cy="63.4" r="1.95" fill="#141414" opacity="0.78" />
  <circle cx="101.2" cy="63.4" r="2.01" fill="#141414" opacity="0.78" />
  <circle cx="18.7" cy="67.9" r="0.99" fill="#141414" opacity="0.78" />
  <circle cx="23.7" cy="67.9" r="1.05" fill="#141414" opacity="0.78" />
  <circle cx="28.7" cy="67.9" r="1.12" fill="#141414" opacity="0.78" />
  <circle cx="33.7" cy="67.9" r="1.19" fill="#141414" opacity="0.78" />
  <circle cx="38.7" cy="67.9" r="1.25" fill="#141414" opacity="0.78" />
  <circle cx="43.7" cy="67.9" r="1.32" fill="#141414" opacity="0.78" />
  <circle cx="48.7" cy="67.9" r="1.38" fill="#141414" opacity="0.78" />
  <circle cx="53.7" cy="67.9" r="1.45" fill="#141414" opacity="0.78" />
  <circle cx="58.7" cy="67.9" r="1.51" fill="#141414" opacity="0.78" />
  <circle cx="63.7" cy="67.9" r="1.58" fill="#141414" opacity="0.78" />
  <circle cx="68.7" cy="67.9" r="1.64" fill="#141414" opacity="0.78" />
  <circle cx="73.7" cy="67.9" r="1.71" fill="#141414" opacity="0.78" />
  <circle cx="78.7" cy="67.9" r="1.78" fill="#141414" opacity="0.78" />
  <circle cx="83.7" cy="67.9" r="1.84" fill="#141414" opacity="0.78" />
  <circle cx="88.7" cy="67.9" r="1.91" fill="#141414" opacity="0.78" />
  <circle cx="93.7" cy="67.9" r="1.97" fill="#141414" opacity="0.78" />
  <circle cx="98.7" cy="67.9" r="2.04" fill="#141414" opacity="0.78" />
  <circle cx="21.2" cy="72.4" r="1.08" fill="#141414" opacity="0.78" />
  <circle cx="26.2" cy="72.4" r="1.15" fill="#141414" opacity="0.78" />
  <circle cx="31.2" cy="72.4" r="1.21" fill="#141414" opacity="0.78" />
  <circle cx="36.2" cy="72.4" r="1.28" fill="#141414" opacity="0.78" />
  <circle cx="41.2" cy="72.4" r="1.34" fill="#141414" opacity="0.78" />
  <circle cx="46.2" cy="72.4" r="1.41" fill="#141414" opacity="0.78" />
  <circle cx="51.2" cy="72.4" r="1.48" fill="#141414" opacity="0.78" />
  <circle cx="56.2" cy="72.4" r="1.54" fill="#141414" opacity="0.78" />
  <circle cx="61.2" cy="72.4" r="1.61" fill="#141414" opacity="0.78" />
  <circle cx="66.2" cy="72.4" r="1.67" fill="#141414" opacity="0.78" />
  <circle cx="71.2" cy="72.4" r="1.74" fill="#141414" opacity="0.78" />
  <circle cx="76.2" cy="72.4" r="1.80" fill="#141414" opacity="0.78" />
  <circle cx="81.2" cy="72.4" r="1.87" fill="#141414" opacity="0.78" />
  <circle cx="86.2" cy="72.4" r="1.94" fill="#141414" opacity="0.78" />
  <circle cx="91.2" cy="72.4" r="2.00" fill="#141414" opacity="0.78" />
  <circle cx="96.2" cy="72.4" r="2.07" fill="#141414" opacity="0.78" />
  <circle cx="28.7" cy="76.9" r="1.24" fill="#141414" opacity="0.78" />
  <circle cx="33.7" cy="76.9" r="1.31" fill="#141414" opacity="0.78" />
  <circle cx="38.7" cy="76.9" r="1.37" fill="#141414" opacity="0.78" />
  <circle cx="43.7" cy="76.9" r="1.44" fill="#141414" opacity="0.78" />
  <circle cx="48.7" cy="76.9" r="1.50" fill="#141414" opacity="0.78" />
  <circle cx="53.7" cy="76.9" r="1.57" fill="#141414" opacity="0.78" />
  <circle cx="58.7" cy="76.9" r="1.64" fill="#141414" opacity="0.78" />
  <circle cx="63.7" cy="76.9" r="1.70" fill="#141414" opacity="0.78" />
  <circle cx="68.7" cy="76.9" r="1.77" fill="#141414" opacity="0.78" />
  <circle cx="73.7" cy="76.9" r="1.83" fill="#141414" opacity="0.78" />
  <circle cx="78.7" cy="76.9" r="1.90" fill="#141414" opacity="0.78" />
  <circle cx="83.7" cy="76.9" r="1.96" fill="#141414" opacity="0.78" />
  <circle cx="88.7" cy="76.9" r="2.03" fill="#141414" opacity="0.78" />
  <circle cx="93.7" cy="76.9" r="2.09" fill="#141414" opacity="0.78" />
  <circle cx="31.2" cy="81.4" r="1.33" fill="#141414" opacity="0.78" />
  <circle cx="36.2" cy="81.4" r="1.40" fill="#141414" opacity="0.78" />
  <circle cx="41.2" cy="81.4" r="1.47" fill="#141414" opacity="0.78" />
  <circle cx="46.2" cy="81.4" r="1.53" fill="#141414" opacity="0.78" />
  <circle cx="51.2" cy="81.4" r="1.60" fill="#141414" opacity="0.78" />
  <circle cx="56.2" cy="81.4" r="1.66" fill="#141414" opacity="0.78" />
  <circle cx="61.2" cy="81.4" r="1.73" fill="#141414" opacity="0.78" />
  <circle cx="66.2" cy="81.4" r="1.79" fill="#141414" opacity="0.78" />
  <circle cx="71.2" cy="81.4" r="1.86" fill="#141414" opacity="0.78" />
  <circle cx="76.2" cy="81.4" r="1.93" fill="#141414" opacity="0.78" />
  <circle cx="81.2" cy="81.4" r="1.99" fill="#141414" opacity="0.78" />
  <circle cx="86.2" cy="81.4" r="2.06" fill="#141414" opacity="0.78" />
  <circle cx="33.7" cy="85.9" r="1.43" fill="#141414" opacity="0.78" />
  <circle cx="38.7" cy="85.9" r="1.49" fill="#141414" opacity="0.78" />
  <circle cx="43.7" cy="85.9" r="1.56" fill="#141414" opacity="0.78" />
  <circle cx="48.7" cy="85.9" r="1.63" fill="#141414" opacity="0.78" />
  <circle cx="53.7" cy="85.9" r="1.69" fill="#141414" opacity="0.78" />
  <circle cx="58.7" cy="85.9" r="1.76" fill="#141414" opacity="0.78" />
  <circle cx="63.7" cy="85.9" r="1.82" fill="#141414" opacity="0.78" />
  <circle cx="68.7" cy="85.9" r="1.89" fill="#141414" opacity="0.78" />
  <circle cx="73.7" cy="85.9" r="1.95" fill="#141414" opacity="0.78" />
  <circle cx="78.7" cy="85.9" r="2.02" fill="#141414" opacity="0.78" />
  <circle cx="83.7" cy="85.9" r="2.08" fill="#141414" opacity="0.78" />
  <circle cx="88.7" cy="85.9" r="2.15" fill="#141414" opacity="0.78" />
  <circle cx="31.2" cy="90.4" r="1.46" fill="#141414" opacity="0.78" />
  <circle cx="36.2" cy="90.4" r="1.52" fill="#141414" opacity="0.78" />
  <circle cx="41.2" cy="90.4" r="1.59" fill="#141414" opacity="0.78" />
  <circle cx="46.2" cy="90.4" r="1.65" fill="#141414" opacity="0.78" />
  <circle cx="51.2" cy="90.4" r="1.72" fill="#141414" opacity="0.78" />
  <circle cx="56.2" cy="90.4" r="1.78" fill="#141414" opacity="0.78" />
  <circle cx="61.2" cy="90.4" r="1.85" fill="#141414" opacity="0.78" />
  <circle cx="66.2" cy="90.4" r="1.92" fill="#141414" opacity="0.78" />
  <circle cx="71.2" cy="90.4" r="1.98" fill="#141414" opacity="0.78" />
  <circle cx="76.2" cy="90.4" r="2.05" fill="#141414" opacity="0.78" />
  <circle cx="81.2" cy="90.4" r="2.11" fill="#141414" opacity="0.78" />
  <circle cx="86.2" cy="90.4" r="2.18" fill="#141414" opacity="0.78" />
  <circle cx="38.7" cy="94.9" r="1.62" fill="#141414" opacity="0.78" />
  <circle cx="43.7" cy="94.9" r="1.68" fill="#141414" opacity="0.78" />
  <circle cx="48.7" cy="94.9" r="1.75" fill="#141414" opacity="0.78" />
  <circle cx="53.7" cy="94.9" r="1.81" fill="#141414" opacity="0.78" />
  <circle cx="63.7" cy="94.9" r="1.94" fill="#141414" opacity="0.78" />
  <circle cx="68.7" cy="94.9" r="2.01" fill="#141414" opacity="0.78" />
  <circle cx="73.7" cy="94.9" r="2.07" fill="#141414" opacity="0.78" />
  <circle cx="78.7" cy="94.9" r="2.14" fill="#141414" opacity="0.78" />
  <circle cx="83.7" cy="94.9" r="2.21" fill="#141414" opacity="0.78" />
  <circle cx="41.2" cy="99.4" r="1.71" fill="#141414" opacity="0.78" />
  <circle cx="46.2" cy="99.4" r="1.77" fill="#141414" opacity="0.78" />
  <circle cx="51.2" cy="99.4" r="1.84" fill="#141414" opacity="0.78" />
  <circle cx="71.2" cy="99.4" r="2.10" fill="#141414" opacity="0.78" />
  <circle cx="76.2" cy="99.4" r="2.17" fill="#141414" opacity="0.78" />
  <circle cx="81.2" cy="99.4" r="2.23" fill="#141414" opacity="0.78" />
  <circle cx="60" cy="60" r="16" fill="#fffdf5" /><circle cx="63" cy="63" r="13" fill="#141414" opacity="0.12" /><circle cx="60" cy="60" r="16" fill="none" stroke="#141414" stroke-opacity="0.25" stroke-width="1" />
</svg>
